<svg width="23" height="25" viewBox="0 0 23 25" fill="none" xmlns="http://www.w3.org/2000/svg">
<path d="M20.7624 6.67266C20.7434 6.52752 20.6719 6.39436 20.5615 6.29827C20.451 6.20219 20.3092 6.14984 20.1629 6.15108H16.8595V4.95204C16.8595 3.63868 16.3378 2.37911 15.4091 1.45042C14.4804 0.521731 13.2208 0 11.9075 0C10.5941 0 9.33454 0.521731 8.40586 1.45042C7.47717 2.37911 6.95544 3.63868 6.95544 4.95204V6.15108H3.64609C3.49971 6.14984 3.35793 6.20219 3.2475 6.29827C3.13706 6.39436 3.06559 6.52752 3.04657 6.67266L0.822345 23.5432C0.811026 23.6306 0.819127 23.7194 0.846069 23.8034C0.873012 23.8873 0.918134 23.9643 0.978221 24.0288C1.23002 24.2986 1.5058 24.5743 1.80556 24.8441C1.91551 24.9441 2.05865 24.9996 2.20724 25H21.6077C21.7563 24.9996 21.8994 24.9441 22.0094 24.8441C22.3032 24.5743 22.6089 24.2986 22.8367 24.0288C22.8968 23.9643 22.9419 23.8873 22.9689 23.8034C22.9958 23.7194 23.0039 23.6306 22.9926 23.5432L20.7624 6.67266ZM8.17246 4.94005C8.17246 3.94469 8.56787 2.9901 9.27169 2.28628C9.97552 1.58245 10.9301 1.18705 11.9255 1.18705C12.9208 1.18705 13.8754 1.58245 14.5792 2.28628C15.2831 2.9901 15.6785 3.94469 15.6785 4.94005V6.13909H8.15448L8.17246 4.94005ZM21.3619 23.801H2.44105L2.04537 23.4173L4.16767 7.35012H19.6413L21.7636 23.4173L21.3619 23.801Z" fill="black"/>
</svg>
